DataType=double
version=3
OpenSimVersion=4.0
endheader
time	/jointset/gnd_pelvis/pelvis_tilt/value	/jointset/gnd_pelvis/pelvis_tilt/speed	/jointset/gnd_pelvis/pelvis_list/value	/jointset/gnd_pelvis/pelvis_list/speed	/jointset/gnd_pelvis/pelvis_rot/value	/jointset/gnd_pelvis/pelvis_rot/speed	/jointset/gnd_pelvis/pelvis_tx/value	/jointset/gnd_pelvis/pelvis_tx/speed	/jointset/gnd_pelvis/pelvis_ty/value	/jointset/gnd_pelvis/pelvis_ty/speed	/jointset/gnd_pelvis/pelvis_tz/value	/jointset/gnd_pelvis/pelvis_tz/speed	/jointset/hip_r/hip_flex_r/value	/jointset/hip_r/hip_flex_r/speed	/jointset/hip_r/hip_add_r/value	/jointset/hip_r/hip_add_r/speed	/jointset/hip_r/hip_rot_r/value	/jointset/hip_r/hip_rot_r/speed	/jointset/pf_r/pf_flex_r/value	/jointset/pf_r/pf_flex_r/speed	/jointset/pf_r/pf_rot_r/value	/jointset/pf_r/pf_rot_r/speed	/jointset/pf_r/pf_tilt_r/value	/jointset/pf_r/pf_tilt_r/speed	/jointset/pf_r/pf_tx_r/value	/jointset/pf_r/pf_tx_r/speed	/jointset/pf_r/pf_ty_r/value	/jointset/pf_r/pf_ty_r/speed	/jointset/pf_r/pf_tz_r/value	/jointset/pf_r/pf_tz_r/speed	/jointset/knee_r/knee_flex_r/value	/jointset/knee_r/knee_flex_r/speed	/jointset/knee_r/knee_add_r/value	/jointset/knee_r/knee_add_r/speed	/jointset/knee_r/knee_rot_r/value	/jointset/knee_r/knee_rot_r/speed	/jointset/knee_r/knee_tx_r/value	/jointset/knee_r/knee_tx_r/speed	/jointset/knee_r/knee_ty_r/value	/jointset/knee_r/knee_ty_r/speed	/jointset/knee_r/knee_tz_r/value	/jointset/knee_r/knee_tz_r/speed	/jointset/ankle_r/ankle_flex_r/value	/jointset/ankle_r/ankle_flex_r/speed	/jointset/subtalar_r/subt_angle_r/value	/jointset/subtalar_r/subt_angle_r/speed	/jointset/mtp_r/mtp_angle_r/value	/jointset/mtp_r/mtp_angle_r/speed	/jointset/hip_l/hip_flex_l/value	/jointset/hip_l/hip_flex_l/speed	/jointset/hip_l/hip_add_l/value	/jointset/hip_l/hip_add_l/speed	/jointset/hip_l/hip_rot_l/value	/jointset/hip_l/hip_rot_l/speed	/jointset/pf_l/pf_l_r3/value	/jointset/pf_l/pf_l_r3/speed	/jointset/pf_l/pf_l_tx/value	/jointset/pf_l/pf_l_tx/speed	/jointset/pf_l/pf_l_ty/value	/jointset/pf_l/pf_l_ty/speed	/jointset/knee_l/knee_flex_l/value	/jointset/knee_l/knee_flex_l/speed	/jointset/ankle_l/ankle_flex_l/value	/jointset/ankle_l/ankle_flex_l/speed	/jointset/subtalar_l/subt_angle_l/value	/jointset/subtalar_l/subt_angle_l/speed	/jointset/mtp_l/mtp_angle_l/value	/jointset/mtp_l/mtp_angle_l/speed	/jointset/pelvis_torso/lumbar_ext/value	/jointset/pelvis_torso/lumbar_ext/speed	/jointset/pelvis_torso/lumbar_latbend/value	/jointset/pelvis_torso/lumbar_latbend/speed	/jointset/pelvis_torso/lumbar_rot/value	/jointset/pelvis_torso/lumbar_rot/speed	/jointset/torso_neckhead/neck_ext/value	/jointset/torso_neckhead/neck_ext/speed	/jointset/torso_neckhead/neck_latbend/value	/jointset/torso_neckhead/neck_latbend/speed	/jointset/torso_neckhead/neck_rot/value	/jointset/torso_neckhead/neck_rot/speed	/jointset/acromial_r/arm_add_r/value	/jointset/acromial_r/arm_add_r/speed	/jointset/acromial_r/arm_flex_r/value	/jointset/acromial_r/arm_flex_r/speed	/jointset/acromial_r/arm_rot_r/value	/jointset/acromial_r/arm_rot_r/speed	/jointset/elbow_r/elbow_flex_r/value	/jointset/elbow_r/elbow_flex_r/speed	/jointset/radioulnar_r/pro_sup_r/value	/jointset/radioulnar_r/pro_sup_r/speed	/jointset/radius_hand_r/wrist_flex_r/value	/jointset/radius_hand_r/wrist_flex_r/speed	/jointset/acromial_l/arm_add_l/value	/jointset/acromial_l/arm_add_l/speed	/jointset/acromial_l/arm_flex_l/value	/jointset/acromial_l/arm_flex_l/speed	/jointset/acromial_l/arm_rot_l/value	/jointset/acromial_l/arm_rot_l/speed	/jointset/elbow_l/elbow_flex_l/value	/jointset/elbow_l/elbow_flex_l/speed	/jointset/radioulnar_l/pro_sup_l/value	/jointset/radioulnar_l/pro_sup_l/speed	/jointset/radius_hand_l/wrist_flex_l/value	/jointset/radius_hand_l/wrist_flex_l/speed	/forceset/addbrev_r/activation	/forceset/addbrev_r/fiber_length	/forceset/addlong_r/activation	/forceset/addlong_r/fiber_length	/forceset/addmagProx_r/activation	/forceset/addmagProx_r/fiber_length	/forceset/addmagMid_r/activation	/forceset/addmagMid_r/fiber_length	/forceset/addmagDist_r/activation	/forceset/addmagDist_r/fiber_length	/forceset/addmagIsch_r/activation	/forceset/addmagIsch_r/fiber_length	/forceset/bflh_r/activation	/forceset/bflh_r/fiber_length	/forceset/bfsh_r/activation	/forceset/bfsh_r/fiber_length	/forceset/edl_r/activation	/forceset/edl_r/fiber_length	/forceset/ehl_r/activation	/forceset/ehl_r/fiber_length	/forceset/fdl_r/activation	/forceset/fdl_r/fiber_length	/forceset/fhl_r/activation	/forceset/fhl_r/fiber_length	/forceset/gaslat_r/activation	/forceset/gaslat_r/fiber_length	/forceset/gasmed_r/activation	/forceset/gasmed_r/fiber_length	/forceset/gem_r/activation	/forceset/gem_r/fiber_length	/forceset/glmax1_r/activation	/forceset/glmax1_r/fiber_length	/forceset/glmax2_r/activation	/forceset/glmax2_r/fiber_length	/forceset/glmax3_r/activation	/forceset/glmax3_r/fiber_length	/forceset/glmed1_r/activation	/forceset/glmed1_r/fiber_length	/forceset/glmed2_r/activation	/forceset/glmed2_r/fiber_length	/forceset/glmed3_r/activation	/forceset/glmed3_r/fiber_length	/forceset/glmin1_r/activation	/forceset/glmin1_r/fiber_length	/forceset/glmin2_r/activation	/forceset/glmin2_r/fiber_length	/forceset/glmin3_r/activation	/forceset/glmin3_r/fiber_length	/forceset/grac_r/activation	/forceset/grac_r/fiber_length	/forceset/iliacus_r/activation	/forceset/iliacus_r/fiber_length	/forceset/pect_r/activation	/forceset/pect_r/fiber_length	/forceset/perbrev_r/activation	/forceset/perbrev_r/fiber_length	/forceset/perlong_r/activation	/forceset/perlong_r/fiber_length	/forceset/pertert_r/activation	/forceset/pertert_r/fiber_length	/forceset/piri_r/activation	/forceset/piri_r/fiber_length	/forceset/psoas_r/activation	/forceset/psoas_r/fiber_length	/forceset/quadfem_r/activation	/forceset/quadfem_r/fiber_length	/forceset/recfem_r/activation	/forceset/recfem_r/fiber_length	/forceset/sart_r/activation	/forceset/sart_r/fiber_length	/forceset/semimem_r/activation	/forceset/semimem_r/fiber_length	/forceset/semiten_r/activation	/forceset/semiten_r/fiber_length	/forceset/soleus_r/activation	/forceset/soleus_r/fiber_length	/forceset/tfl_r/activation	/forceset/tfl_r/fiber_length	/forceset/tibant_r/activation	/forceset/tibant_r/fiber_length	/forceset/tibpost_r/activation	/forceset/tibpost_r/fiber_length	/forceset/vasint_r/activation	/forceset/vasint_r/fiber_length	/forceset/vaslat_r/activation	/forceset/vaslat_r/fiber_length	/forceset/vasmed_r/activation	/forceset/vasmed_r/fiber_length
2.03	-0.06605738531671353	-0.08477388374482545	0.08022703008968524	-0.5108598745077422	-0.08601770794592366	-0.5378719459405691	0.9801276440726465	1.013889327013172	0.9310254359427635	0.1544026359025207	-0.2190007007172724	-0.01842252398611241	0.3070803836321513	3.615432680116065	-0.1365781313675713	0.9669296629193946	-0.05234638099941801	0.9317906719623059	0.4117971418371859	0.610712552773412	0.004320599018785912	-0.3254620804249951	-0.06630200153787333	-0.1114961940875471	0.0196201533046573	-0.07685385953034855	-0.02895819844715266	-0.002068827986298481	0.003696175841268174	-0.003399683580670865	1.182794361171509	1.190869491205144	0.03766559634074574	0.03211295516763604	0.102805900142395	-0.08655628588015293	0.004455900331291169	-0.01676725034635873	-0.005281716833357818	-0.002164754907407576	-0.001935876514240627	-0.001214981667352842	-0.1885145235075957	0.7336953426841439	-0.1714026717194257	-1.116519207292451	0	0	0.1972408594073696	-1.933063382898112	-0.1614900285666606	0.2863393057855652	0.1473709783161048	0.04675644867529564	0.001136855114871519	1.084202172485515e-17	0.04434999999999901	-8.673617379884538e-17	-0.4187119999999905	7.632783294297939e-15	0.2325863205596329	-1.447678230132463	0.2286736520563036	0.5670071246460447	0.02036432593351304	-0.1667085750087878	0	0	-0.02536030512137281	-0.19456299670237	-0.08510655684604078	0.6397240907788087	0.1824623049661256	-0.3719410899924477	0.1901486933061351	0.001653417540498083	0	0	0	0	-0.1252843235981855	-0.03893933588419051	-0.1063005481175516	-0.1335001398315432	-0.2051105861124429	-0.05941612632166829	0.8564473829311451	-0.6044846780573393	0.7816246815601876	-0.05763879634257811	0	0	-0.1556018879145981	0.3693498208774198	-0.1360510314236588	1.692785673363538	-0.6046392513188845	0.1857793019046507	0.477256713273543	0.4286392579513383	0.7956220803889132	-0.0008811036989705176	0	0	0.01	0.1	0.01	0.1	0.01	0.1	0.01	0.1	0.01	0.1	0.01	0.1	0.01	0.1	0.01	0.1	0.07375274666942548	0.1	0.07527225266435661	0.1	0.01	0.1	0.01	0.1	0.01	0.1	0.01	0.1	1	0.1	0.01	0.1	0.01	0.1	0.01	0.1	0.01	0.1	0.01	0.1	0.09478111336443858	0.1	0.1107644111635556	0.1	0.2816850119771667	0.1	0.5160515244518161	0.1	0.01	0.1	0.7359690526224106	0.1	0.1288499577419253	0.1	0.01	0.1	0.01	0.1	0.04518024235832054	0.1	0.9686284904142243	0.1	0.4508651585907539	0.1	0.01	0.1	0.4145560763548483	0.1	0.01	0.1712326517334566	0.01	0.1	0.01	0.1	0.01	0.1	0.01	0.1	0.09004433474282666	0.1	0.01	0.1	0.01	0.1	0.01	0.1	0.01	0.1
2.04	-0.06711430200606662	-0.1252244789103571	0.07488112267679692	-0.5562778608846571	-0.09076373356534527	-0.4086103494944514	0.9902479396319855	1.010492858070109	0.9325140963369611	0.1428528075346155	-0.2192114622866772	-0.02407032184047758	0.3423052760634525	3.425526507899786	-0.126609462722079	1.019484602172185	-0.04423974528336353	0.6863492416904801	0.4192459370066599	0.7448795169473936	0.001569636019113923	-0.2750962999671986	-0.06686510023493557	-0.05630986970622388	0.01919220409562856	-0.04279492090287457	-0.02904744185943419	-0.008924341228153448	0.003674630329438832	-0.002154551182934103	1.191274198396206	0.5084306820833878	0.03746073327416904	-0.02048630665767019	0.1014449652733111	-0.136093486908384	0.00431146049966173	-0.01444398316294393	-0.00524124071136704	0.004047612199077791	-0.001975755016375558	-0.003987850213493096	-0.1816900886231558	0.6241350286910725	-0.1818065941778064	-0.9602417536746112	0	0	0.1781604390802153	-1.884325119789182	-0.1584029270367792	0.3288220975238149	0.1477820282908606	0.0352180919802573	0.001136855114871519	1.716653439768728e-17	0.04434999999999901	5.782411586589669e-17	-0.4187119999999905	-3.932039878880899e-15	0.2181002809991961	-1.44875350448628	0.2337475536915644	0.4472793577147116	0.01886727106666466	-0.1302108755932745	0	0	-0.02709623848268866	-0.1532112547531583	-0.07845698503362628	0.6882337723530547	0.1781767597684324	-0.4854835875931147	0.1901639028057583	0.001383222502130891	0	0	0	0	-0.1257598747233791	-0.05622673278768448	-0.1077792281569912	-0.1638628175586577	-0.205589489205639	-0.03663277156455649	0.8505007207869957	-0.585408378787073	0.7810575831467569	-0.05583002950121829	0	0	-0.1519469721988324	0.3620862291397879	-0.1188400211562141	1.750017501335252	-0.6028531451011169	0.1712757665619677	0.4816522538318651	0.4512634789844149	0.7956189615090946	0.0003085895252538824	0	0	0.01	0.1	0.01	0.1	0.01	0.1	0.01	0.1	0.01	0.1	0.01	0.1	0.01	0.1	0.01	0.1	0.07033644857754784	0.1	0.07194473797368783	0.1	0.01	0.1	0.01	0.1	0.01	0.1	0.01	0.1	1	0.1	0.01	0.1	0.01	0.1	0.01	0.1	0.01	0.1	0.01	0.1	0.1156801612514831	0.1	0.1015917193271746	0.1	0.2636623536340467	0.1	0.4858183309112974	0.1	0.01	0.1	0.6228090357098173	0.1	0.07829893007157603	0.1	0.01	0.1	0.01	0.1	0.04272072707194256	0.1	0.8815492373098101	0.1	0.3792666127773199	0.1	0.01	0.1	0.4090089110808432	0.1	0.01	0.1712326517334566	0.01	0.1	0.01	0.1	0.01	0.1	0.01	0.1	0.08600339943544447	0.1	0.01	0.1	0.01	0.1	0.01	0.1	0.01	0.1
2.05	-0.06853029982693729	-0.1562384545037145	0.06914444195287357	-0.5888331412978632	-0.09414861830892213	-0.2669745356204694	1.000343226524739	1.008814144903696	0.9338731185760233	0.1284956190430694	-0.2194874962707798	-0.03133193789878139	0.375517000644042	3.213446391851961	-0.1163293410201184	1.029769032627744	-0.03865827494904581	0.4292441763874092	0.4192459370066599	0	0.001569636019113923	0	-0.06686510023493557	0	0.01919220409562856	0	-0.02904744185943419	0	0.003674630329438832	0	1.193040838165992	-0.1506491211937245	0.03746073327416904	0	0.1014449652733111	0	0.00431146049966173	0	-0.00524124071136704	0	-0.001975755016375558	0	-0.1761117894764762	0.4905847518874246	-0.1905451403535192	-0.7852575059797384	0	0	0.1595216243974093	-1.845326674113821	-0.1549609976065966	0.3571222229172036	0.1480607820053952	0.01933680717483092	0.001136855114871519	-1.626303258728185e-17	0.04434999999999902	6.360652745248207e-16	-0.4187119999999905	-2.77555756156301e-15	0.2036203268761966	-1.447013034038154	0.2376279634691269	0.3302101147763862	0.01780553012965503	-0.08006442707857536	0	0	-0.02844010170659127	-0.1165122590948521	-0.0713854380865513	0.723696285502643	0.1727652286891385	-0.5952734408413924	0.1901763001972307	0.001096149733810853	0	0	0	0	-0.1264072026566022	-0.07299427436515771	-0.1096031376717426	-0.2018017185368333	-0.2058586225031682	-0.01851891018708801	0.8447031077583795	-0.5771359748337043	0.7805046922757707	-0.05503316368028009	0	0	-0.1483503352263058	0.3577437546396414	-0.10103140823516	1.812963544991666	-0.6012069585213757	0.1588373261994208	0.4862967461795126	0.4783097300195155	0.7956287347517755	0.001641984386732669	0	0	0.01	0.1	0.01	0.1	0.01	0.1	0.01	0.1	0.01	0.1	0.01	0.1	0.01	0.1	0.01	0.1	0.06776762253255716	0.1	0.06945613509697611	0.1	0.01	0.1	0.01	0.1	0.01	0.1	0.01	0.1	1	0.1	0.01	0.1	0.01	0.1	0.01	0.1	0.01	0.1	0.01	0.1	0.1434338882736087	0.1	0.05048481883977127	0.1	0.231944230998406	0.1	0.4876217011054506	0.1	0.01	0.1	0.6431012361940178	0.1	0.06580010897951967	0.1	0.01	0.1	0.01	0.1	0.04083721930977	0.1	0.9535353199149851	0.1	0.4000918064367132	0.1	0.01	0.1	0.3776096467870424	0.1	0.01	0.1712326517334566	0.01	0.1	0.01	0.1	0.01	0.1	0.01	0.1	0.08297270714181118	0.1	0.01	0.1	0.01	0.1	0.01	0.1	0.01	0.1
2.06	-0.07020236539308117	-0.1762822343756202	0.06314964714925271	-0.607859328659852	-0.09608897403781337	-0.1210579307128845	1.010428505559428	1.008421790980499	0.9350752708430804	0.111520875012701	-0.2198404812919882	-0.03930725401186219	0.4065131883900134	2.983061622660649	-0.1061391551851106	1.002531528407357	-0.03564525052428712	0.1750224804828258	0.4204043865684582	0.1158449561798335	-0.0009271540053689915	-0.2496790024482913	-0.06689781713755812	-0.00327169026225482	0.01909474958677749	-0.009745450885107259	-0.02920688589940148	-0.0159444039967281	0.003652889164233014	-0.002174116520581823	1.188354998323139	-0.781594219228567	0.03666730089852214	-0.07934323756468985	0.09908381254949379	-0.2361152723817329	0.004130136448620091	-0.01813240510416387	-0.005019179306345767	0.02220614050212732	-0.002060433157101505	-0.008467814072594724	-0.1718450058967084	0.3670507816934435	-0.1974835649115481	-0.6017007566032073	0	0	0.1412136505952588	-1.8183188076889	-0.1513094518828875	0.3707735078433855	0.148136820671258	-0.006066576320886023	0.001136855114871518	-9.035018104036883e-19	0.04434999999999902	6.071532165918724e-16	-0.4187119999999905	-5.206481974458678e-29	0.189162876940054	-1.444319070092172	0.2403993639507417	0.2273950498505568	0.01730433602883098	-0.01838264229662336	0	0	-0.02944839778604429	-0.08636798253711628	-0.06403402089572785	0.7438945614846372	0.1663190829625242	-0.6908000067999766	0.1901858867130464	0.0008274913381472514	0	0	0	0	-0.1272110256841369	-0.08712514750046152	-0.1118246858821705	-0.2425568246629659	-0.2059987636583514	-0.01210345885243442	0.8388754781129806	-0.5935089178809152	0.7799491821433421	-0.05654496745218783	0	0	-0.1447826851253008	0.3561954913510798	-0.08255238714465425	1.884316136273283	-0.5996473050958347	0.1551496113114553	0.4912305877389873	0.5089991801300421	0.7956511333813592	0.0027746390849894	0	0	0.01	0.1	0.01	0.1	0.01	0.1	0.01	0.1	0.01	0.1	0.01	0.1	0.01	0.1	0.01	0.1	0.06776762253255716	0.1	0.06945613509697611	0.1	0.01	0.1	0.01	0.1	0.01	0.1	0.01	0.1	1	0.1	0.01	0.1	0.01	0.1	0.01	0.1	0.01	0.1	0.01	0.1	0.1434338882736087	0.1	0.05048481883977127	0.1	0.231944230998406	0.1	0.4876217011054506	0.1	0.01	0.1	0.6431012361940178	0.1	0.06580010897951967	0.1	0.01	0.1	0.01	0.1	0.04083721930977	0.1	0.9535353199149851	0.1	0.4000918064367132	0.1	0.01	0.1	0.3776096467870424	0.1	0.01	0.1712326517334566	0.01	0.1	0.01	0.1	0.01	0.1	0.01	0.1	0.08297270714181118	0.1	0.01	0.1	0.01	0.1	0.01	0.1	0.01	0.1
